<mxfile host="app.diagrams.net" modified="2023-09-26T14:34:48.199Z" agent="Mozilla/5.0 (Windows NT 10.0; Win64; x64) AppleWebKit/537.36 (KHTML, like Gecko) Chrome/117.0.0.0 Safari/537.36" etag="bfPkipbAHeQ1ZJuK81Ce" version="21.6.8" type="github">
  <diagram id="C5RBs43oDa-KdzZeNtuy" name="Page-1">
    <mxGraphModel dx="1434" dy="750" grid="1" gridSize="10" guides="1" tooltips="1" connect="1" arrows="1" fold="1" page="1" pageScale="1" pageWidth="827" pageHeight="1169" math="0" shadow="0">
      <root>
        <mxCell id="WIyWlLk6GJQsqaUBKTNV-0" />
        <mxCell id="WIyWlLk6GJQsqaUBKTNV-1" parent="WIyWlLk6GJQsqaUBKTNV-0" />
        <mxCell id="_sI9fXl2GTtRrqDUZF84-5" style="edgeStyle=orthogonalEdgeStyle;rounded=0;orthogonalLoop=1;jettySize=auto;html=1;exitX=0.5;exitY=1;exitDx=0;exitDy=0;" edge="1" parent="WIyWlLk6GJQsqaUBKTNV-1">
          <mxGeometry relative="1" as="geometry">
            <mxPoint x="245" y="610" as="sourcePoint" />
            <mxPoint x="245" y="610" as="targetPoint" />
          </mxGeometry>
        </mxCell>
        <mxCell id="_sI9fXl2GTtRrqDUZF84-6" style="edgeStyle=orthogonalEdgeStyle;rounded=0;orthogonalLoop=1;jettySize=auto;html=1;exitX=0.5;exitY=1;exitDx=0;exitDy=0;" edge="1" parent="WIyWlLk6GJQsqaUBKTNV-1">
          <mxGeometry relative="1" as="geometry">
            <mxPoint x="245" y="610" as="sourcePoint" />
            <mxPoint x="245" y="610" as="targetPoint" />
          </mxGeometry>
        </mxCell>
        <mxCell id="_sI9fXl2GTtRrqDUZF84-86" value="BudgetInventoryGroup" style="shape=table;childLayout=tableLayout;startSize=40;collapsible=0;recursiveResize=0;expand=0;fontSize=16;" vertex="1" parent="WIyWlLk6GJQsqaUBKTNV-1">
          <mxGeometry x="150" y="310" width="440" height="230" as="geometry" />
        </mxCell>
        <mxCell id="_sI9fXl2GTtRrqDUZF84-87" value="" style="shape=tableRow;horizontal=0;swimlaneHead=0;swimlaneBody=0;top=0;left=0;strokeColor=inherit;bottom=0;right=0;dropTarget=0;fontStyle=0;fillColor=none;points=[[0,0.5],[1,0.5]];portConstraint=eastwest;startSize=0;collapsible=0;recursiveResize=0;expand=0;fontSize=16;" vertex="1" parent="_sI9fXl2GTtRrqDUZF84-86">
          <mxGeometry y="40" width="440" height="90" as="geometry" />
        </mxCell>
        <mxCell id="_sI9fXl2GTtRrqDUZF84-88" value="RecId" style="swimlane;swimlaneHead=0;swimlaneBody=0;fontStyle=0;strokeColor=inherit;connectable=0;fillColor=none;startSize=40;collapsible=0;recursiveResize=0;expand=0;fontSize=16;" vertex="1" parent="_sI9fXl2GTtRrqDUZF84-87">
          <mxGeometry width="140" height="90" as="geometry">
            <mxRectangle width="140" height="90" as="alternateBounds" />
          </mxGeometry>
        </mxCell>
        <mxCell id="_sI9fXl2GTtRrqDUZF84-89" value="InventoryGroupName" style="swimlane;swimlaneHead=0;swimlaneBody=0;fontStyle=0;strokeColor=inherit;connectable=0;fillColor=none;startSize=40;collapsible=0;recursiveResize=0;expand=0;fontSize=16;" vertex="1" parent="_sI9fXl2GTtRrqDUZF84-87">
          <mxGeometry x="140" width="154" height="90" as="geometry">
            <mxRectangle width="154" height="90" as="alternateBounds" />
          </mxGeometry>
        </mxCell>
        <mxCell id="_sI9fXl2GTtRrqDUZF84-102" value="Traktör" style="text;html=1;align=center;verticalAlign=middle;resizable=0;points=[];autosize=1;strokeColor=none;fillColor=none;" vertex="1" parent="_sI9fXl2GTtRrqDUZF84-89">
          <mxGeometry x="45" y="48" width="60" height="30" as="geometry" />
        </mxCell>
        <mxCell id="_sI9fXl2GTtRrqDUZF84-90" value="ItemOrderNo" style="swimlane;swimlaneHead=0;swimlaneBody=0;fontStyle=0;strokeColor=inherit;connectable=0;fillColor=none;startSize=40;collapsible=0;recursiveResize=0;expand=0;fontSize=16;" vertex="1" parent="_sI9fXl2GTtRrqDUZF84-87">
          <mxGeometry x="294" width="146" height="90" as="geometry">
            <mxRectangle width="146" height="90" as="alternateBounds" />
          </mxGeometry>
        </mxCell>
        <mxCell id="_sI9fXl2GTtRrqDUZF84-106" value="123" style="text;html=1;align=center;verticalAlign=middle;resizable=0;points=[];autosize=1;strokeColor=none;fillColor=none;" vertex="1" parent="_sI9fXl2GTtRrqDUZF84-90">
          <mxGeometry x="46" y="48" width="40" height="30" as="geometry" />
        </mxCell>
        <mxCell id="_sI9fXl2GTtRrqDUZF84-91" value="" style="shape=tableRow;horizontal=0;swimlaneHead=0;swimlaneBody=0;top=0;left=0;strokeColor=inherit;bottom=0;right=0;dropTarget=0;fontStyle=0;fillColor=none;points=[[0,0.5],[1,0.5]];portConstraint=eastwest;startSize=0;collapsible=0;recursiveResize=0;expand=0;fontSize=16;" vertex="1" parent="_sI9fXl2GTtRrqDUZF84-86">
          <mxGeometry y="130" width="440" height="50" as="geometry" />
        </mxCell>
        <mxCell id="_sI9fXl2GTtRrqDUZF84-92" value="" style="swimlane;swimlaneHead=0;swimlaneBody=0;fontStyle=0;connectable=0;strokeColor=inherit;fillColor=none;startSize=0;collapsible=0;recursiveResize=0;expand=0;fontSize=16;" vertex="1" parent="_sI9fXl2GTtRrqDUZF84-91">
          <mxGeometry width="140" height="50" as="geometry">
            <mxRectangle width="140" height="50" as="alternateBounds" />
          </mxGeometry>
        </mxCell>
        <mxCell id="_sI9fXl2GTtRrqDUZF84-100" value="2" style="text;html=1;align=center;verticalAlign=middle;resizable=0;points=[];autosize=1;strokeColor=none;fillColor=none;" vertex="1" parent="_sI9fXl2GTtRrqDUZF84-92">
          <mxGeometry x="55" y="10" width="30" height="30" as="geometry" />
        </mxCell>
        <mxCell id="_sI9fXl2GTtRrqDUZF84-93" value="" style="swimlane;swimlaneHead=0;swimlaneBody=0;fontStyle=0;connectable=0;strokeColor=inherit;fillColor=none;startSize=0;collapsible=0;recursiveResize=0;expand=0;fontSize=16;" vertex="1" parent="_sI9fXl2GTtRrqDUZF84-91">
          <mxGeometry x="140" width="154" height="50" as="geometry">
            <mxRectangle width="154" height="50" as="alternateBounds" />
          </mxGeometry>
        </mxCell>
        <mxCell id="_sI9fXl2GTtRrqDUZF84-103" value="Ticari Araç" style="text;html=1;align=center;verticalAlign=middle;resizable=0;points=[];autosize=1;strokeColor=none;fillColor=none;" vertex="1" parent="_sI9fXl2GTtRrqDUZF84-93">
          <mxGeometry x="32" y="10" width="80" height="30" as="geometry" />
        </mxCell>
        <mxCell id="_sI9fXl2GTtRrqDUZF84-94" value="" style="swimlane;swimlaneHead=0;swimlaneBody=0;fontStyle=0;connectable=0;strokeColor=inherit;fillColor=none;startSize=0;collapsible=0;recursiveResize=0;expand=0;fontSize=16;" vertex="1" parent="_sI9fXl2GTtRrqDUZF84-91">
          <mxGeometry x="294" width="146" height="50" as="geometry">
            <mxRectangle width="146" height="50" as="alternateBounds" />
          </mxGeometry>
        </mxCell>
        <mxCell id="_sI9fXl2GTtRrqDUZF84-95" value="" style="shape=tableRow;horizontal=0;swimlaneHead=0;swimlaneBody=0;top=0;left=0;strokeColor=inherit;bottom=0;right=0;dropTarget=0;fontStyle=0;fillColor=none;points=[[0,0.5],[1,0.5]];portConstraint=eastwest;startSize=0;collapsible=0;recursiveResize=0;expand=0;fontSize=16;" vertex="1" parent="_sI9fXl2GTtRrqDUZF84-86">
          <mxGeometry y="180" width="440" height="50" as="geometry" />
        </mxCell>
        <mxCell id="_sI9fXl2GTtRrqDUZF84-96" value="" style="swimlane;swimlaneHead=0;swimlaneBody=0;fontStyle=0;connectable=0;strokeColor=inherit;fillColor=none;startSize=0;collapsible=0;recursiveResize=0;expand=0;fontSize=16;" vertex="1" parent="_sI9fXl2GTtRrqDUZF84-95">
          <mxGeometry width="140" height="50" as="geometry">
            <mxRectangle width="140" height="50" as="alternateBounds" />
          </mxGeometry>
        </mxCell>
        <mxCell id="_sI9fXl2GTtRrqDUZF84-101" value="3" style="text;html=1;align=center;verticalAlign=middle;resizable=0;points=[];autosize=1;strokeColor=none;fillColor=none;" vertex="1" parent="_sI9fXl2GTtRrqDUZF84-96">
          <mxGeometry x="55" y="10" width="30" height="30" as="geometry" />
        </mxCell>
        <mxCell id="_sI9fXl2GTtRrqDUZF84-97" value="" style="swimlane;swimlaneHead=0;swimlaneBody=0;fontStyle=0;connectable=0;strokeColor=inherit;fillColor=none;startSize=0;collapsible=0;recursiveResize=0;expand=0;fontSize=16;" vertex="1" parent="_sI9fXl2GTtRrqDUZF84-95">
          <mxGeometry x="140" width="154" height="50" as="geometry">
            <mxRectangle width="154" height="50" as="alternateBounds" />
          </mxGeometry>
        </mxCell>
        <mxCell id="_sI9fXl2GTtRrqDUZF84-105" value="Mısır Tablası" style="text;html=1;align=center;verticalAlign=middle;resizable=0;points=[];autosize=1;strokeColor=none;fillColor=none;" vertex="1" parent="_sI9fXl2GTtRrqDUZF84-97">
          <mxGeometry x="32" y="10" width="90" height="30" as="geometry" />
        </mxCell>
        <mxCell id="_sI9fXl2GTtRrqDUZF84-98" value="" style="swimlane;swimlaneHead=0;swimlaneBody=0;fontStyle=0;connectable=0;strokeColor=inherit;fillColor=none;startSize=0;collapsible=0;recursiveResize=0;expand=0;fontSize=16;" vertex="1" parent="_sI9fXl2GTtRrqDUZF84-95">
          <mxGeometry x="294" width="146" height="50" as="geometry">
            <mxRectangle width="146" height="50" as="alternateBounds" />
          </mxGeometry>
        </mxCell>
        <mxCell id="_sI9fXl2GTtRrqDUZF84-108" value="789" style="text;html=1;align=center;verticalAlign=middle;resizable=0;points=[];autosize=1;strokeColor=none;fillColor=none;" vertex="1" parent="_sI9fXl2GTtRrqDUZF84-98">
          <mxGeometry x="53" y="10" width="40" height="30" as="geometry" />
        </mxCell>
        <mxCell id="_sI9fXl2GTtRrqDUZF84-99" value="1" style="text;html=1;align=center;verticalAlign=middle;resizable=0;points=[];autosize=1;strokeColor=none;fillColor=none;" vertex="1" parent="WIyWlLk6GJQsqaUBKTNV-1">
          <mxGeometry x="205" y="408" width="30" height="30" as="geometry" />
        </mxCell>
        <mxCell id="_sI9fXl2GTtRrqDUZF84-107" value="456" style="text;html=1;align=center;verticalAlign=middle;resizable=0;points=[];autosize=1;strokeColor=none;fillColor=none;" vertex="1" parent="WIyWlLk6GJQsqaUBKTNV-1">
          <mxGeometry x="490" y="448" width="40" height="30" as="geometry" />
        </mxCell>
        <mxCell id="_sI9fXl2GTtRrqDUZF84-116" style="edgeStyle=orthogonalEdgeStyle;rounded=0;orthogonalLoop=1;jettySize=auto;html=1;exitX=-0.007;exitY=0.267;exitDx=0;exitDy=0;exitPerimeter=0;entryX=-0.012;entryY=0.303;entryDx=0;entryDy=0;entryPerimeter=0;" edge="1" parent="WIyWlLk6GJQsqaUBKTNV-1" source="_sI9fXl2GTtRrqDUZF84-87" target="_sI9fXl2GTtRrqDUZF84-118">
          <mxGeometry relative="1" as="geometry">
            <mxPoint x="80" y="760" as="targetPoint" />
            <Array as="points">
              <mxPoint x="81" y="374" />
              <mxPoint x="81" y="832" />
            </Array>
          </mxGeometry>
        </mxCell>
        <mxCell id="_sI9fXl2GTtRrqDUZF84-117" value="BudgetInventoryCategory" style="shape=table;childLayout=tableLayout;startSize=40;collapsible=0;recursiveResize=0;expand=0;fontSize=16;" vertex="1" parent="WIyWlLk6GJQsqaUBKTNV-1">
          <mxGeometry x="140" y="769" width="400" height="181" as="geometry" />
        </mxCell>
        <mxCell id="_sI9fXl2GTtRrqDUZF84-118" value="" style="shape=tableRow;horizontal=0;swimlaneHead=0;swimlaneBody=0;top=0;left=0;strokeColor=inherit;bottom=0;right=0;dropTarget=0;fontStyle=0;fillColor=none;points=[[0,0.5],[1,0.5]];portConstraint=eastwest;startSize=0;collapsible=0;recursiveResize=0;expand=0;fontSize=16;" vertex="1" parent="_sI9fXl2GTtRrqDUZF84-117">
          <mxGeometry y="40" width="400" height="76" as="geometry" />
        </mxCell>
        <mxCell id="_sI9fXl2GTtRrqDUZF84-119" value="RecId" style="swimlane;swimlaneHead=0;swimlaneBody=0;fontStyle=0;strokeColor=inherit;connectable=0;fillColor=none;startSize=40;collapsible=0;recursiveResize=0;expand=0;fontSize=16;" vertex="1" parent="_sI9fXl2GTtRrqDUZF84-118">
          <mxGeometry width="133" height="76" as="geometry">
            <mxRectangle width="133" height="76" as="alternateBounds" />
          </mxGeometry>
        </mxCell>
        <mxCell id="_sI9fXl2GTtRrqDUZF84-120" value="Phase 2" style="swimlane;swimlaneHead=0;swimlaneBody=0;fontStyle=0;strokeColor=inherit;connectable=0;fillColor=none;startSize=40;collapsible=0;recursiveResize=0;expand=0;fontSize=16;" vertex="1" parent="_sI9fXl2GTtRrqDUZF84-118">
          <mxGeometry x="133" width="134" height="76" as="geometry">
            <mxRectangle width="134" height="76" as="alternateBounds" />
          </mxGeometry>
        </mxCell>
        <mxCell id="_sI9fXl2GTtRrqDUZF84-121" value="Phase 3" style="swimlane;swimlaneHead=0;swimlaneBody=0;fontStyle=0;strokeColor=inherit;connectable=0;fillColor=none;startSize=40;collapsible=0;recursiveResize=0;expand=0;fontSize=16;" vertex="1" parent="_sI9fXl2GTtRrqDUZF84-118">
          <mxGeometry x="267" width="133" height="76" as="geometry">
            <mxRectangle width="133" height="76" as="alternateBounds" />
          </mxGeometry>
        </mxCell>
        <mxCell id="_sI9fXl2GTtRrqDUZF84-122" value="" style="shape=tableRow;horizontal=0;swimlaneHead=0;swimlaneBody=0;top=0;left=0;strokeColor=inherit;bottom=0;right=0;dropTarget=0;fontStyle=0;fillColor=none;points=[[0,0.5],[1,0.5]];portConstraint=eastwest;startSize=0;collapsible=0;recursiveResize=0;expand=0;fontSize=16;" vertex="1" parent="_sI9fXl2GTtRrqDUZF84-117">
          <mxGeometry y="116" width="400" height="28" as="geometry" />
        </mxCell>
        <mxCell id="_sI9fXl2GTtRrqDUZF84-123" value="" style="swimlane;swimlaneHead=0;swimlaneBody=0;fontStyle=0;connectable=0;strokeColor=inherit;fillColor=none;startSize=0;collapsible=0;recursiveResize=0;expand=0;fontSize=16;" vertex="1" parent="_sI9fXl2GTtRrqDUZF84-122">
          <mxGeometry width="133" height="28" as="geometry">
            <mxRectangle width="133" height="28" as="alternateBounds" />
          </mxGeometry>
        </mxCell>
        <mxCell id="_sI9fXl2GTtRrqDUZF84-124" value="" style="swimlane;swimlaneHead=0;swimlaneBody=0;fontStyle=0;connectable=0;strokeColor=inherit;fillColor=none;startSize=0;collapsible=0;recursiveResize=0;expand=0;fontSize=16;" vertex="1" parent="_sI9fXl2GTtRrqDUZF84-122">
          <mxGeometry x="133" width="134" height="28" as="geometry">
            <mxRectangle width="134" height="28" as="alternateBounds" />
          </mxGeometry>
        </mxCell>
        <mxCell id="_sI9fXl2GTtRrqDUZF84-125" value="" style="swimlane;swimlaneHead=0;swimlaneBody=0;fontStyle=0;connectable=0;strokeColor=inherit;fillColor=none;startSize=0;collapsible=0;recursiveResize=0;expand=0;fontSize=16;" vertex="1" parent="_sI9fXl2GTtRrqDUZF84-122">
          <mxGeometry x="267" width="133" height="28" as="geometry">
            <mxRectangle width="133" height="28" as="alternateBounds" />
          </mxGeometry>
        </mxCell>
        <mxCell id="_sI9fXl2GTtRrqDUZF84-126" value="" style="shape=tableRow;horizontal=0;swimlaneHead=0;swimlaneBody=0;top=0;left=0;strokeColor=inherit;bottom=0;right=0;dropTarget=0;fontStyle=0;fillColor=none;points=[[0,0.5],[1,0.5]];portConstraint=eastwest;startSize=0;collapsible=0;recursiveResize=0;expand=0;fontSize=16;" vertex="1" parent="_sI9fXl2GTtRrqDUZF84-117">
          <mxGeometry y="144" width="400" height="37" as="geometry" />
        </mxCell>
        <mxCell id="_sI9fXl2GTtRrqDUZF84-127" value="" style="swimlane;swimlaneHead=0;swimlaneBody=0;fontStyle=0;connectable=0;strokeColor=inherit;fillColor=none;startSize=0;collapsible=0;recursiveResize=0;expand=0;fontSize=16;" vertex="1" parent="_sI9fXl2GTtRrqDUZF84-126">
          <mxGeometry width="133" height="37" as="geometry">
            <mxRectangle width="133" height="37" as="alternateBounds" />
          </mxGeometry>
        </mxCell>
        <mxCell id="_sI9fXl2GTtRrqDUZF84-128" value="" style="swimlane;swimlaneHead=0;swimlaneBody=0;fontStyle=0;connectable=0;strokeColor=inherit;fillColor=none;startSize=0;collapsible=0;recursiveResize=0;expand=0;fontSize=16;" vertex="1" parent="_sI9fXl2GTtRrqDUZF84-126">
          <mxGeometry x="133" width="134" height="37" as="geometry">
            <mxRectangle width="134" height="37" as="alternateBounds" />
          </mxGeometry>
        </mxCell>
        <mxCell id="_sI9fXl2GTtRrqDUZF84-129" value="" style="swimlane;swimlaneHead=0;swimlaneBody=0;fontStyle=0;connectable=0;strokeColor=inherit;fillColor=none;startSize=0;collapsible=0;recursiveResize=0;expand=0;fontSize=16;" vertex="1" parent="_sI9fXl2GTtRrqDUZF84-126">
          <mxGeometry x="267" width="133" height="37" as="geometry">
            <mxRectangle width="133" height="37" as="alternateBounds" />
          </mxGeometry>
        </mxCell>
      </root>
    </mxGraphModel>
  </diagram>
</mxfile>
